<mxfile host="app.diagrams.net" modified="2024-03-21T12:22:43.562Z" agent="Mozilla/5.0 (Windows NT 10.0; Win64; x64; rv:109.0) Gecko/20100101 Firefox/115.0" etag="gjjL7YriVUdHTtfPGMLI" version="24.0.7" type="device">
  <diagram name="Page-1" id="PT02kA5AdEUoJguPKS6Y">
    <mxGraphModel dx="1562" dy="854" grid="1" gridSize="10" guides="1" tooltips="1" connect="1" arrows="1" fold="1" page="0" pageScale="1" pageWidth="850" pageHeight="1100" math="0" shadow="0">
      <root>
        <mxCell id="0" />
        <mxCell id="1" parent="0" />
        <mxCell id="ySlDb-rM-HuEXQJ25sTJ-1" value="Paved roads raster" style="rounded=0;whiteSpace=wrap;html=1;" parent="1" vertex="1">
          <mxGeometry x="240" y="40" width="120" height="40" as="geometry" />
        </mxCell>
        <mxCell id="ySlDb-rM-HuEXQJ25sTJ-10" value="&lt;h1 style=&quot;margin-top: 0px;&quot;&gt;Input&lt;/h1&gt;" style="text;html=1;whiteSpace=wrap;overflow=hidden;rounded=0;" parent="1" vertex="1">
          <mxGeometry x="40" y="40" width="70" height="40" as="geometry" />
        </mxCell>
        <mxCell id="ySlDb-rM-HuEXQJ25sTJ-31" value="&lt;h1 style=&quot;margin-top: 0px;&quot;&gt;Output&lt;/h1&gt;" style="text;html=1;whiteSpace=wrap;overflow=hidden;rounded=0;" parent="1" vertex="1">
          <mxGeometry x="40" y="360" width="100" height="40" as="geometry" />
        </mxCell>
        <mxCell id="ySlDb-rM-HuEXQJ25sTJ-33" value="&lt;h1 style=&quot;margin-top: 0px;&quot;&gt;Processing&lt;/h1&gt;" style="text;html=1;whiteSpace=wrap;overflow=hidden;rounded=0;" parent="1" vertex="1">
          <mxGeometry x="40" y="200" width="140" height="40" as="geometry" />
        </mxCell>
        <mxCell id="ySlDb-rM-HuEXQJ25sTJ-34" value="" style="endArrow=none;dashed=1;html=1;dashPattern=1 3;strokeWidth=2;rounded=0;" parent="1" edge="1">
          <mxGeometry width="50" height="50" relative="1" as="geometry">
            <mxPoint x="200" y="80" as="sourcePoint" />
            <mxPoint x="200" y="40" as="targetPoint" />
          </mxGeometry>
        </mxCell>
        <mxCell id="ySlDb-rM-HuEXQJ25sTJ-35" value="" style="endArrow=none;dashed=1;html=1;dashPattern=1 3;strokeWidth=2;rounded=0;" parent="1" edge="1">
          <mxGeometry width="50" height="50" relative="1" as="geometry">
            <mxPoint x="200" y="320" as="sourcePoint" />
            <mxPoint x="200" y="120" as="targetPoint" />
          </mxGeometry>
        </mxCell>
        <mxCell id="ySlDb-rM-HuEXQJ25sTJ-36" value="" style="endArrow=none;dashed=1;html=1;dashPattern=1 3;strokeWidth=2;rounded=0;" parent="1" edge="1">
          <mxGeometry width="50" height="50" relative="1" as="geometry">
            <mxPoint x="200" y="400" as="sourcePoint" />
            <mxPoint x="200" y="360" as="targetPoint" />
          </mxGeometry>
        </mxCell>
        <mxCell id="DrDVU3Ht0lz9oGVluDeD-2" value="Unpaved roads raster" style="rounded=0;whiteSpace=wrap;html=1;" parent="1" vertex="1">
          <mxGeometry x="400" y="40" width="120" height="40" as="geometry" />
        </mxCell>
        <mxCell id="Q3OZfO-lklIZ2XV6-eBN-1" value="Borders raster" style="rounded=0;whiteSpace=wrap;html=1;" vertex="1" parent="1">
          <mxGeometry x="560" y="40" width="120" height="40" as="geometry" />
        </mxCell>
        <mxCell id="Q3OZfO-lklIZ2XV6-eBN-2" value="" style="endArrow=classic;html=1;rounded=0;exitX=0.5;exitY=1;exitDx=0;exitDy=0;entryX=0.5;entryY=0;entryDx=0;entryDy=0;" edge="1" parent="1" source="ySlDb-rM-HuEXQJ25sTJ-1" target="Q3OZfO-lklIZ2XV6-eBN-5">
          <mxGeometry width="50" height="50" relative="1" as="geometry">
            <mxPoint x="270" y="380" as="sourcePoint" />
            <mxPoint x="300" y="120" as="targetPoint" />
          </mxGeometry>
        </mxCell>
        <mxCell id="Q3OZfO-lklIZ2XV6-eBN-3" value="" style="endArrow=classic;html=1;rounded=0;exitX=0.5;exitY=1;exitDx=0;exitDy=0;entryX=0.5;entryY=0;entryDx=0;entryDy=0;" edge="1" parent="1" target="Q3OZfO-lklIZ2XV6-eBN-6">
          <mxGeometry width="50" height="50" relative="1" as="geometry">
            <mxPoint x="459.5" y="80" as="sourcePoint" />
            <mxPoint x="459.5" y="120" as="targetPoint" />
          </mxGeometry>
        </mxCell>
        <mxCell id="Q3OZfO-lklIZ2XV6-eBN-4" value="" style="endArrow=classic;html=1;rounded=0;exitX=0.5;exitY=1;exitDx=0;exitDy=0;entryX=0.5;entryY=0;entryDx=0;entryDy=0;" edge="1" parent="1" target="Q3OZfO-lklIZ2XV6-eBN-7">
          <mxGeometry width="50" height="50" relative="1" as="geometry">
            <mxPoint x="619.5" y="80" as="sourcePoint" />
            <mxPoint x="619.5" y="120" as="targetPoint" />
          </mxGeometry>
        </mxCell>
        <mxCell id="Q3OZfO-lklIZ2XV6-eBN-5" value="Paved roads raster with friction value" style="rounded=0;whiteSpace=wrap;html=1;" vertex="1" parent="1">
          <mxGeometry x="240" y="200" width="120" height="40" as="geometry" />
        </mxCell>
        <mxCell id="Q3OZfO-lklIZ2XV6-eBN-6" value="Paved roads raster with friction value" style="rounded=0;whiteSpace=wrap;html=1;" vertex="1" parent="1">
          <mxGeometry x="400" y="200" width="120" height="40" as="geometry" />
        </mxCell>
        <mxCell id="Q3OZfO-lklIZ2XV6-eBN-7" value="Paved roads raster with friction value" style="rounded=0;whiteSpace=wrap;html=1;" vertex="1" parent="1">
          <mxGeometry x="560" y="200" width="120" height="40" as="geometry" />
        </mxCell>
        <mxCell id="Q3OZfO-lklIZ2XV6-eBN-9" value="Raster calculation" style="text;html=1;align=center;verticalAlign=middle;whiteSpace=wrap;rounded=0;" vertex="1" parent="1">
          <mxGeometry x="300" y="120" width="60" height="40" as="geometry" />
        </mxCell>
        <mxCell id="Q3OZfO-lklIZ2XV6-eBN-11" value="" style="endArrow=classic;html=1;rounded=0;exitX=0.5;exitY=1;exitDx=0;exitDy=0;entryX=0.5;entryY=0;entryDx=0;entryDy=0;" edge="1" parent="1" source="Q3OZfO-lklIZ2XV6-eBN-5" target="Q3OZfO-lklIZ2XV6-eBN-12">
          <mxGeometry width="50" height="50" relative="1" as="geometry">
            <mxPoint x="270" y="380" as="sourcePoint" />
            <mxPoint x="460" y="240" as="targetPoint" />
          </mxGeometry>
        </mxCell>
        <mxCell id="Q3OZfO-lklIZ2XV6-eBN-12" value="Friction surface" style="rounded=0;whiteSpace=wrap;html=1;" vertex="1" parent="1">
          <mxGeometry x="400" y="360" width="120" height="40" as="geometry" />
        </mxCell>
        <mxCell id="Q3OZfO-lklIZ2XV6-eBN-13" value="" style="endArrow=classic;html=1;rounded=0;exitX=0.5;exitY=1;exitDx=0;exitDy=0;entryX=0.5;entryY=0;entryDx=0;entryDy=0;" edge="1" parent="1" source="Q3OZfO-lklIZ2XV6-eBN-6" target="Q3OZfO-lklIZ2XV6-eBN-12">
          <mxGeometry width="50" height="50" relative="1" as="geometry">
            <mxPoint x="310" y="170" as="sourcePoint" />
            <mxPoint x="470" y="250" as="targetPoint" />
          </mxGeometry>
        </mxCell>
        <mxCell id="Q3OZfO-lklIZ2XV6-eBN-14" value="" style="endArrow=classic;html=1;rounded=0;exitX=0.575;exitY=1.075;exitDx=0;exitDy=0;exitPerimeter=0;entryX=0.5;entryY=0;entryDx=0;entryDy=0;" edge="1" parent="1" source="Q3OZfO-lklIZ2XV6-eBN-7" target="Q3OZfO-lklIZ2XV6-eBN-12">
          <mxGeometry width="50" height="50" relative="1" as="geometry">
            <mxPoint x="320" y="180" as="sourcePoint" />
            <mxPoint x="480" y="260" as="targetPoint" />
          </mxGeometry>
        </mxCell>
        <mxCell id="Q3OZfO-lklIZ2XV6-eBN-15" value="Merge" style="text;html=1;align=center;verticalAlign=middle;whiteSpace=wrap;rounded=0;" vertex="1" parent="1">
          <mxGeometry x="460" y="280" width="60" height="40" as="geometry" />
        </mxCell>
        <mxCell id="Q3OZfO-lklIZ2XV6-eBN-16" value="Raster calculation" style="text;html=1;align=center;verticalAlign=middle;whiteSpace=wrap;rounded=0;" vertex="1" parent="1">
          <mxGeometry x="460" y="120" width="60" height="40" as="geometry" />
        </mxCell>
        <mxCell id="Q3OZfO-lklIZ2XV6-eBN-17" value="Raster calculation" style="text;html=1;align=center;verticalAlign=middle;whiteSpace=wrap;rounded=0;" vertex="1" parent="1">
          <mxGeometry x="620" y="120" width="60" height="40" as="geometry" />
        </mxCell>
      </root>
    </mxGraphModel>
  </diagram>
</mxfile>
